#!OML:ASF F:\VICON\USERDATA\INSTALL\Justin_Nancy\Justin_Nancy.ASF
:FULLY-SPECIFIED
:DEGREES
454
root 8.21902 17.6039 10.5634 64.613 93.1257 64.2713
lowerback 8.87517 0.0134956 0.759728
upperback -0.0329948 0.279074 2.71652
thorax -5.02859 0.171131 2.36576
lowerneck -16.61 -3.41778 -8.28494
upperneck 22.8484 -3.22892 3.84794
head 10.2565 -1.66617 2.32381
rclavicle -2.95692e-015 -3.1408e-014
rhumerus -30.5635 -8.66054 -80.7775
rradius 28.6272
rwrist 7.75712
rhand -13.5317 11.0306
rfingers 7.12502
rthumb 12.5806 -18.5706
lclavicle -2.95692e-015 -3.1408e-014
lhumerus -33.337 9.27436 84.5709
lradius 27.9633
lwrist -5.68529
lhand -18.326 25.2918
lfingers 7.12502
lthumb 7.95566 55.1221
rfemur -6.68152 6.37845 27.0299
rtibia 23.2142
rfoot -13.4871 -5.3752
rtoes 22.056
lfemur -26.1047 -0.760852 -17.7412
ltibia 61.9032
lfoot -7.67531 0.753776
ltoes -8.66115
455
root 8.33797 17.5919 10.562 69.0168 93.5031 68.8069
lowerback 9.11939 0.193908 1.52046
upperback 0.0426405 0.603614 2.64516
thorax -5.09025 0.3129 1.81908
lowerneck -16.7971 -3.59021 -8.53117
upperneck 22.9735 -3.49287 4.25834
head 10.3679 -1.75987 2.47486
rclavicle 4.96962e-016 1.47101e-014
rhumerus -30.4379 -8.64783 -80.9855
rradius 28.9986
rwrist 6.95118
rhand -13.809 11.0033
rfingers 7.12502
rthumb 12.3133 -18.6142
lclavicle 4.96962e-016 1.47101e-014
lhumerus -33.2669 9.04391 84.4884
lradius 27.8969
lwrist -6.13802
lhand -18.0689 24.7187
lfingers 7.12502
lthumb 8.20379 54.5395
rfemur -6.13128 6.16657 27.5739
rtibia 23.3815
rfoot -14.0688 -5.01956
rtoes 23.5334
lfemur -26.6135 -0.381026 -17.2343
ltibia 60.8329
lfoot -8.53036 1.58729
ltoes -9.60172
456
root 8.45729 17.579 10.5611 71.0016 93.7072 70.8045
lowerback 9.1991 0.343907 1.83453
upperback 0.173416 0.865293 3.00178
thorax -5.00578 0.443989 1.97905
lowerneck -17.1925 -3.85745 -10.2021
upperneck 23.17 -3.53628 4.96257
head 10.5727 -1.84246 3.00159
rclavicle -3.52843e-015 -1.70955e-014
rhumerus -30.1415 -6.66381 -80.8259
rradius 29.6606
rwrist 4.57195
rhand -14.4743 10.4632
rfingers 7.12502
rthumb 11.6717 -19.1917
lclavicle -3.52843e-015 -1.70955e-014
lhumerus -33.1032 9.71291 85.0799
lradius 27.7658
lwrist -6.76031
lhand -18.2922 24.6893
lfingers 7.12502
lthumb 7.98832 54.5184
rfemur -5.72304 5.72557 27.9304
rtibia 23.4524
rfoot -14.2636 -4.77907
rtoes 21.5821
lfemur -27.1492 -0.473973 -17.0259
ltibia 59.6344
lfoot -9.26566 2.56944
ltoes -10.4357
457
root 8.57358 17.5357 10.5647 68.6664 93.6367 68.2568
lowerback 9.09853 0.430094 1.68636
upperback 0.218081 0.970811 3.16199
thorax -4.91032 0.503358 2.21621
lowerneck -17.4426 -3.9767 -10.9934
upperneck 23.2073 -3.50076 5.16908
head 10.6556 -1.87075 3.21257
rclavicle 2.38542e-015 -1.03368e-014
rhumerus -29.9398 -4.03672 -81.3474
rradius 30.8615
rwrist 0.308522
rhand -16.3691 7.5517
rfingers 7.12502
rthumb 9.84404 -22.1982
lclavicle 2.38542e-015 -1.03368e-014
lhumerus -32.9661 10.0982 85.6095
lradius 27.6275
lwrist -7.32971
lhand -18.7724 25.2004
lfingers 7.12502
lthumb 7.52484 55.0466
rfemur -5.5977 4.86962 28.0466
rtibia 23.3865
rfoot -13.9337 -5.22116
rtoes 14.4081
lfemur -27.999 -0.667845 -17.1843
ltibia 58.3498
lfoot -9.3515 3.56084
ltoes -13.54
458
root 8.69772 17.5071 10.5681 69.8449 93.632 69.2251
lowerback 8.96308 0.668702 1.66394
upperback 0.149498 1.27558 3.0763
thorax -4.91245 0.651988 2.10002
lowerneck -17.0853 -3.98072 -10.1923
upperneck 22.8119 -3.65025 4.67872
head 10.4274 -1.92607 2.87468
rclavicle 1.20762e-014 3.26007e-014
rhumerus -29.9343 -4.46647 -81.2496
rradius 31.176
rwrist 0.519533
rhand -15.7258 7.92338
rfingers 7.12502
rthumb 10.4646 -21.7962
lclavicle 1.20762e-014 3.26007e-014
lhumerus -32.9997 10.0253 85.6358
lradius 27.5477
lwrist -7.63556
lhand -18.3448 25.379
lfingers 7.12502
lthumb 7.93754 55.21
rfemur -5.25338 4.71869 28.1882
rtibia 23.1992
rfoot -14.1312 -5.73624
rtoes 12.3782
lfemur -28.6685 -0.632938 -17.1414
ltibia 56.8817
lfoot -9.37509 4.48266
ltoes -16.3595
459
root 8.82784 17.5169 10.5761 73.9491 93.6878 73.2226
lowerback 8.84386 1.16741 1.89944
upperback 0.0863936 1.93584 2.73486
thorax -4.90773 0.964869 1.52643
lowerneck -16.6481 -4.27217 -8.88249
upperneck 22.5632 -4.35394 4.22001
head 10.2648 -2.19057 2.39219
rclavicle 1.02871e-014 7.95139e-016
rhumerus -30.1478 -6.80261 -80.6834
rradius 31.0772
rwrist 3.5723
rhand -13.7629 9.90017
rfingers 7.12502
rthumb 12.3577 -19.7146
lclavicle 1.02871e-014 7.95139e-016
lhumerus -32.952 9.11805 85.3949
lradius 27.355
lwrist -8.143
lhand -17.2352 24.7447
lfingers 7.12502
lthumb 9.00841 54.5323
rfemur -4.66855 5.59139 28.3501
rtibia 22.9015
rfoot -14.8 -5.8612
rtoes 16.4824
lfemur -28.9913 -0.590066 -16.8755
ltibia 55.187
lfoot -9.99278 5.39714
ltoes -13.7183
460
root 8.95108 17.5105 10.578 74.4289 93.6764 73.5894
lowerback 8.8897 1.61559 2.11188
upperback -0.0745229 2.52896 2.30004
thorax -5.08058 1.24099 0.874553
lowerneck -16.4526 -4.66064 -8.14701
upperneck 22.764 -5.14795 4.33799
head 10.3374 -2.47661 2.20343
rclavicle -8.19987e-016 -4.25399e-014
rhumerus -30.5741 -8.04164 -80.7159
rradius 31.4966
rwrist 3.87944
rhand -13.6632 9.90852
rfingers 7.12502
rthumb 12.4539 -19.7004
lclavicle -8.19987e-016 -4.25399e-014
lhumerus -32.946 7.56653 85.3024
lradius 27.1282
lwrist -8.15665
lhand -17.3066 24.2436
lfingers 7.12502
lthumb 8.93946 54.0342
rfemur -4.19881 5.7232 28.454
rtibia 22.5227
rfoot -14.8455 -6.29295
rtoes 14.1926
lfemur -29.3774 -0.626738 -16.7442
ltibia 53.4066
lfoot -10.8627 6.10122
ltoes -6.1451
461
root 9.07162 17.4881 10.5755 74.2379 93.6748 73.3056
lowerback 8.99718 1.64127 2.23753
upperback -0.149479 2.57937 2.25252
thorax -5.21209 1.25998 0.743844
lowerneck -16.6202 -4.66495 -8.36109
upperneck 23.0052 -5.11108 4.45541
head 10.4648 -2.46157 2.2861
rclavicle 1.71452e-014 -1.98785e-015
rhumerus -30.3163 -8.31106 -80.6072
rradius 31.3957
rwrist 4.53793
rhand -13.3641 10.9069
rfingers 7.12502
rthumb 12.7422 -18.6843
lclavicle 1.71452e-014 -1.98785e-015
lhumerus -33.1003 8.04496 85.1117
lradius 27.0459
lwrist -8.0401
lhand -17.465 23.8201
lfingers 7.12502
lthumb 8.78661 53.6172
rfemur -3.57979 5.54357 28.5731
rtibia 21.9324
rfoot -14.669 -6.92137
rtoes 11.2297
lfemur -29.7129 -0.76468 -16.6518
ltibia 51.5489
lfoot -11.2904 6.71895
ltoes -2.97745
462
root 9.19796 17.4694 10.5892 76.0896 94.208 75.1143
lowerback 8.96753 1.2131 2.55071
upperback -0.00246367 2.07486 2.73704
thorax -5.05012 1.01723 1.14178
lowerneck -17.2422 -4.28817 -9.23367
upperneck 23.1694 -4.31638 4.58131
head 10.6137 -2.15699 2.58663
rclavicle -4.82053e-015 7.95139e-016
rhumerus -29.2792 -7.65206 -80.5895
rradius 30.9451
rwrist 5.34227
rhand -13.0271 11.759
rfingers 7.12502
rthumb 13.067 -17.8117
lclavicle -4.82053e-015 7.95139e-016
lhumerus -33.1624 10.044 84.8958
lradius 26.9788
lwrist -7.81174
lhand -17.3493 23.8845
lfingers 7.12502
lthumb 8.8983 53.6769
rfemur -2.82429 5.65008 29.3049
rtibia 21.3418
rfoot -14.7455 -7.38606
rtoes 11.9501
lfemur -30.152 0.0795091 -16.3667
ltibia 49.6166
lfoot -10.323 8.00871
ltoes -13.2847
463
root 9.32908 17.4757 10.5975 77.022 94.7793 75.9691
lowerback 8.89132 1.49361 3.13903
upperback -0.0937447 2.49617 2.54067
thorax -5.07055 1.20581 0.553868
lowerneck -16.8292 -4.47142 -8.33318
upperneck 22.9936 -4.84604 4.5076
head 10.481 -2.3305 2.33596
rclavicle 7.85199e-015 4.09496e-014
rhumerus -29.522 -9.8487 -80.3994
rradius 31.1553
rwrist 6.61906
rhand -12.7171 12.1567
rfingers 7.12502
rthumb 13.3658 -17.3946
lclavicle 7.85199e-015 4.09496e-014
lhumerus -33.1038 8.95674 84.7483
lradius 26.6683
lwrist -7.55106
lhand -17.5552 24.1598
lfingers 7.12502
lthumb 8.69958 53.9605
rfemur -2.22268 5.72925 30.0122
rtibia 20.9891
rfoot -15.1376 -7.8242
rtoes 8.14056
lfemur -30.212 -0.781943 -15.104
ltibia 47.5051
lfoot -11.6264 6.8395
ltoes 1.29004
464
root 9.45577 17.4805 10.5864 77.2417 94.5898 75.775
lowerback 8.57827 1.70547 3.03157
upperback -0.219522 2.74678 2.4403
thorax -5.0228 1.32908 0.485589
lowerneck -16.7103 -4.62414 -8.1749
upperneck 22.8639 -5.07084 4.34206
head 10.4183 -2.44058 2.21764
rclavicle 1.97294e-014 -2.18663e-014
rhumerus -30.2158 -5.22952 -81.3618
rradius 33.0806
rwrist 2.00015
rhand -13.4745 10.7173
rfingers 7.12502
rthumb 12.6358 -18.8805
lclavicle 1.97294e-014 -2.18663e-014
lhumerus -33.1252 8.64572 84.9443
lradius 26.5403
lwrist -7.67751
lhand -18.2993 24.7707
lfingers 7.12502
lthumb 7.98145 54.6
rfemur -2.0323 5.8789 29.788
rtibia 20.6791
rfoot -15.4339 -8.05032
rtoes 7.4713
lfemur -30.5447 -1.21091 -15.2055
ltibia 45.1329
lfoot -11.2343 6.85973
ltoes 3.0764
465
root 9.57594 17.4744 10.5621 71.2815 93.8751 69.3992
lowerback 8.33114 1.70982 2.64949
upperback -0.315333 2.68064 2.12104
thorax -4.98512 1.2981 0.38239
lowerneck -16.6244 -4.67557 -8.25952
upperneck 22.6599 -5.12639 4.34255
head 10.3347 -2.47548 2.22303
rclavicle 4.91992e-015 1.47101e-014
rhumerus -30.4762 -3.40886 -81.6835
rradius 34.1347
rwrist 0.321473
rhand -13.502 10.4779
rfingers 7.12502
rthumb 12.6092 -19.1216
lclavicle 4.91992e-015 1.47101e-014
lhumerus -33.158 8.77879 85.0145
lradius 26.4459
lwrist -7.86172
lhand -18.5257 24.9856
lfingers 7.12502
lthumb 7.76291 54.8231
rfemur -1.91985 5.43919 28.7933
rtibia 20.4222
rfoot -15.4968 -7.6068
rtoes 8.64802
lfemur -30.9297 -1.38715 -16.4899
ltibia 42.5545
lfoot -9.71874 7.80235
ltoes -8.04353
466
root 9.69688 17.4648 10.5508 64.8399 94.2879 63.1004
lowerback 8.62259 1.52771 3.09536
upperback -0.284629 2.49844 2.13128
thorax -5.10133 1.19631 0.157672
lowerneck -16.5029 -4.6623 -8.33689
upperneck 22.4128 -5.11418 4.41431
head 10.2258 -2.47066 2.26285
rclavicle -3.72473e-014 -1.19271e-015
rhumerus -30.0335 -5.0794 -81.2653
rradius 33.7804
rwrist 2.07554
rhand -12.9485 11.6162
rfingers 7.12502
rthumb 13.1429 -17.9496
lclavicle -3.72473e-014 -1.19271e-015
lhumerus -33.2341 9.46388 84.7361
lradius 26.238
lwrist -8.49098
lhand -18.0277 24.7361
lfingers 7.12502
lthumb 8.24359 54.5552
rfemur -1.25125 5.33047 28.9847
rtibia 20.4204
rfoot -16.1153 -6.92775
rtoes 14.2184
lfemur -30.6361 -2.4425 -16.0412
ltibia 39.8156
lfoot -9.28515 7.49765
ltoes -6.41809
